<?xml version='1.0' encoding='utf-8'?>
<svg xmlns="http://www.w3.org/2000/svg" id="svg1234" version="1.1" viewBox="0 0 968.95064 1288.6488" height="4870.4834" width="3662.1758"> <defs id="defs1228"/> <metadata id="metadata1231"> </metadata> <g transform="translate(-10.450798,1005.6058)" id="layer1"> <rect ry="98.539291" y="-985.13812" x="30.918451" height="1247.7134" width="928.01538" id="rect4747" style="display:inline;opacity:1;fill:#ff100a;fill-opacity:1;fill-rule:nonzero;stroke:#000000;stroke-width:40.93530655;stroke-linecap:round;stroke-linejoin:round;stroke-miterlimit:4;stroke-dasharray:none;stroke-dashoffset:0;stroke-opacity:1;paint-order:normal"/> <rect y="-890.76868" x="107.25375" height="251.411" width="776.16461" id="rect4750" style="display:inline;opacity:1;fill:#ffffff;fill-opacity:1;fill-rule:nonzero;stroke:#000000;stroke-width:49.07315445;stroke-linecap:round;stroke-linejoin:miter;stroke-miterlimit:4;stroke-dasharray:none;stroke-dashoffset:0;stroke-opacity:1;paint-order:normal"/> <g id="flowRoot4753" style="font-style:normal;font-variant:normal;font-weight:normal;font-stretch:normal;font-size:40px;line-height:1.25;font-family:Digiface;-inkscape-font-specification:Digiface;letter-spacing:0px;word-spacing:0px;display:inline;fill:#000000;fill-opacity:1;stroke:none" transform="matrix(5.7554578,0,0,5.6371476,-113.47033,-1842.1728)" aria-label="0 "> <path id="path10062" d="m 160.97742,191.21405 -3.44,-2 v -7.92 l 1.72,-1.72 1.72,1.72 z m -2.24,-12.2 -1.76,1.68 h -8.36 l -1.76,-1.68 1.76,-1.76 h 8.36 z m 2.24,23 -1.72,1.72 -1.72,-1.72 v -8.2 l 3.44,-1.72 z m -12.96,-12.8 -3.44,2 v -9.92 l 1.72,-1.72 1.72,1.72 z m 0,12.8 -1.72,1.72 -1.72,-1.72 v -9.92 l 3.44,1.72 z m 10.72,2.28 -1.76,1.76 h -8.36 l -1.76,-1.76 1.76,-1.68 h 8.36 z"/> </g> <rect ry="11.592856" y="-539.94873" x="124.04246" height="145.62947" width="177.73868" id="rect4762" style="display:inline;opacity:1;fill:#070706;fill-opacity:1;fill-rule:nonzero;stroke:#000000;stroke-width:32.87776947;stroke-linecap:round;stroke-linejoin:miter;stroke-miterlimit:4;stroke-dasharray:none;stroke-dashoffset:0;stroke-opacity:1;paint-order:normal"/> <rect ry="17.389288" style="display:inline;opacity:1;fill:#070706;fill-opacity:1;fill-rule:nonzero;stroke:#000000;stroke-width:32.87776947;stroke-linecap:round;stroke-linejoin:miter;stroke-miterlimit:4;stroke-dasharray:none;stroke-dashoffset:0;stroke-opacity:1;paint-order:normal" id="rect4766" width="177.73868" height="145.62947" x="406.05673" y="-539.94873"/> <rect ry="5.7964282" y="-539.94873" x="689.31232" height="145.62947" width="177.73868" id="rect4768" style="display:inline;opacity:1;fill:#070706;fill-opacity:1;fill-rule:nonzero;stroke:#000000;stroke-width:32.87776947;stroke-linecap:round;stroke-linejoin:miter;stroke-miterlimit:4;stroke-dasharray:none;stroke-dashoffset:0;stroke-opacity:1;paint-order:normal"/> <rect ry="11.592856" style="display:inline;opacity:1;fill:#070706;fill-opacity:1;fill-rule:nonzero;stroke:#000000;stroke-width:32.87776947;stroke-linecap:round;stroke-linejoin:miter;stroke-miterlimit:4;stroke-dasharray:none;stroke-dashoffset:0;stroke-opacity:1;paint-order:normal" id="rect4770" width="177.73868" height="145.62947" x="119.46223" y="-266.85419"/> <rect ry="14.491074" y="-266.85419" x="406.05673" height="145.62947" width="177.73868" id="rect4772" style="display:inline;opacity:1;fill:#070706;fill-opacity:1;fill-rule:nonzero;stroke:#000000;stroke-width:32.87776947;stroke-linecap:round;stroke-linejoin:miter;stroke-miterlimit:4;stroke-dasharray:none;stroke-dashoffset:0;stroke-opacity:1;paint-order:normal"/> <rect ry="14.491074" style="display:inline;opacity:1;fill:#070706;fill-opacity:1;fill-rule:nonzero;stroke:#000000;stroke-width:32.87776947;stroke-linecap:round;stroke-linejoin:miter;stroke-miterlimit:4;stroke-dasharray:none;stroke-dashoffset:0;stroke-opacity:1;paint-order:normal" id="rect4774" width="177.73868" height="145.62947" x="686.56586" y="-266.85419"/> <rect ry="14.491074" y="2.9296665" x="120.75111" height="145.62947" width="177.73868" id="rect4776" style="display:inline;opacity:1;fill:#070706;fill-opacity:1;fill-rule:nonzero;stroke:#000000;stroke-width:32.87776947;stroke-linecap:round;stroke-linejoin:miter;stroke-miterlimit:4;stroke-dasharray:none;stroke-dashoffset:0;stroke-opacity:1;paint-order:normal"/> <rect ry="5.7964282" style="display:inline;opacity:1;fill:#070706;fill-opacity:1;fill-rule:nonzero;stroke:#000000;stroke-width:32.87776947;stroke-linecap:round;stroke-linejoin:miter;stroke-miterlimit:4;stroke-dasharray:none;stroke-dashoffset:0;stroke-opacity:1;paint-order:normal" id="rect4778" width="177.73868" height="145.62947" x="406.05673" y="2.9296665"/> <rect ry="14.491074" y="2.9296665" x="686.021" height="145.62947" width="177.73868" id="rect4780" style="display:inline;opacity:1;fill:#070706;fill-opacity:1;fill-rule:nonzero;stroke:#000000;stroke-width:32.87776947;stroke-linecap:round;stroke-linejoin:miter;stroke-miterlimit:4;stroke-dasharray:none;stroke-dashoffset:0;stroke-opacity:1;paint-order:normal"/> <g id="flowRoot6032" style="font-style:normal;font-weight:normal;font-size:40px;line-height:1.25;font-family:sans-serif;letter-spacing:0px;word-spacing:0px;display:inline;fill:#000000;fill-opacity:1;stroke:none" transform="matrix(9.513532,0,0,4.9398437,-1116.4557,-2495.4176)" aria-label="7"> <path id="path9942" style="font-style:normal;font-variant:normal;font-weight:normal;font-stretch:normal;font-family:Arial;-inkscape-font-specification:Arial;fill:#ffffff;fill-opacity:1" d="m 130.4668,399.84478 v -3.37891 h 18.53515 v 2.73437 q -2.73437,2.91016 -5.42968,7.73438 -2.67579,4.82422 -4.14063,9.92187 -1.05469,3.59375 -1.34766,7.8711 h -3.61328 q 0.0586,-3.37891 1.32813,-8.16406 1.26953,-4.78516 3.63281,-9.21875 2.38281,-4.45313 5.05859,-7.5 z"/> </g> <g id="flowRoot6086" style="font-style:normal;font-weight:normal;font-size:40px;line-height:1.25;font-family:sans-serif;letter-spacing:0px;word-spacing:0px;display:inline;fill:#000000;fill-opacity:1;stroke:none" transform="matrix(9.513532,0,0,4.9398437,-833.41938,-2495.4176)" aria-label="8"> <path id="path9939" style="font-style:normal;font-variant:normal;font-weight:normal;font-stretch:normal;font-family:Arial;-inkscape-font-specification:Arial;fill:#ffffff;fill-opacity:1" d="m 135.64258,409.20024 q -2.1875,-0.80078 -3.24219,-2.28515 -1.05469,-1.48438 -1.05469,-3.55469 0,-3.125 2.2461,-5.25391 2.24609,-2.1289 5.97656,-2.1289 3.75,0 6.03516,2.1875 2.28515,2.16797 2.28515,5.29297 0,1.99218 -1.05469,3.47656 -1.03515,1.46484 -3.16406,2.26562 2.63672,0.85938 4.00391,2.77344 1.38672,1.91406 1.38672,4.57031 0,3.67188 -2.59766,6.17188 -2.59766,2.5 -6.83594,2.5 -4.23828,0 -6.83593,-2.5 -2.59766,-2.51953 -2.59766,-6.26953 0,-2.79297 1.40625,-4.66797 1.42578,-1.89453 4.04297,-2.57813 z m -0.70313,-5.95703 q 0,2.03125 1.3086,3.32032 1.30859,1.28906 3.39843,1.28906 2.03125,0 3.32032,-1.26953 1.30859,-1.28907 1.30859,-3.14453 0,-1.9336 -1.34766,-3.24219 -1.32812,-1.32813 -3.32031,-1.32813 -2.01172,0 -3.33984,1.28907 -1.32813,1.28906 -1.32813,3.08593 z m -1.13281,13.22266 q 0,1.50391 0.70313,2.91016 0.72265,1.40625 2.1289,2.1875 1.40625,0.76171 3.02735,0.76171 2.51953,0 4.16015,-1.62109 1.64063,-1.62109 1.64063,-4.12109 0,-2.53907 -1.69922,-4.19922 -1.67969,-1.66016 -4.21875,-1.66016 -2.48047,0 -4.1211,1.64063 -1.62109,1.64062 -1.62109,4.10156 z"/> </g> <g id="flowRoot6094" style="font-style:normal;font-weight:normal;font-size:40px;line-height:1.25;font-family:sans-serif;letter-spacing:0px;word-spacing:0px;display:inline;fill:#000000;fill-opacity:1;stroke:none" transform="matrix(9.513532,0,0,4.9398437,-551.98135,-2222.323)" aria-label="6"> <path id="path9936" style="font-style:normal;font-variant:normal;font-weight:normal;font-stretch:normal;font-family:Arial;-inkscape-font-specification:Arial;fill:#ffffff;fill-opacity:1" d="m 148.47461,403.10649 -3.49609,0.27344 q -0.46875,-2.07031 -1.32813,-3.00781 -1.42578,-1.50391 -3.51562,-1.50391 -1.67969,0 -2.94922,0.9375 -1.66016,1.21094 -2.61719,3.53516 -0.95703,2.32422 -0.99609,6.62109 1.26953,-1.93359 3.10546,-2.87109 1.83594,-0.9375 3.84766,-0.9375 3.51563,0 5.97656,2.59766 2.48047,2.57812 2.48047,6.67968 0,2.69532 -1.17187,5.01953 -1.15235,2.30469 -3.1836,3.53516 -2.03125,1.23047 -4.60937,1.23047 -4.39453,0 -7.16797,-3.22266 -2.77344,-3.24218 -2.77344,-10.66406 0,-8.30078 3.06641,-12.07031 2.67578,-3.28125 7.20703,-3.28125 3.37891,0 5.52734,1.89453 2.16797,1.89453 2.59766,5.23437 z m -14.35547,12.34375 q 0,1.81641 0.76172,3.47657 0.78125,1.66015 2.16797,2.53906 1.38672,0.85937 2.91015,0.85937 2.22657,0 3.82813,-1.79687 1.60156,-1.79688 1.60156,-4.88281 0,-2.96875 -1.58203,-4.66797 -1.58203,-1.71875 -3.98437,-1.71875 -2.38282,0 -4.04297,1.71875 -1.66016,1.69922 -1.66016,4.47265 z"/> </g> <g id="flowRoot6102" style="font-style:normal;font-weight:normal;font-size:40px;line-height:1.25;font-family:sans-serif;letter-spacing:0px;word-spacing:0px;display:inline;fill:#000000;fill-opacity:1;stroke:none" transform="matrix(9.513532,0,0,4.9398437,-550.34969,-2495.4176)" aria-label="9"> <path id="path9933" style="font-style:normal;font-variant:normal;font-weight:normal;font-stretch:normal;font-family:Arial;-inkscape-font-specification:Arial;fill:#ffffff;fill-opacity:1" d="m 130.75977,418.10649 3.3789,-0.3125 q 0.42969,2.38282 1.64063,3.45704 1.21093,1.07421 3.10547,1.07421 1.62109,0 2.83203,-0.74218 1.23047,-0.74219 2.01172,-1.97266 0.78125,-1.25 1.30859,-3.35937 0.52734,-2.10938 0.52734,-4.29688 0,-0.23437 -0.0195,-0.70312 -1.05469,1.67968 -2.89062,2.73437 -1.81641,1.03516 -3.94532,1.03516 -3.55468,0 -6.01562,-2.57813 -2.46094,-2.57812 -2.46094,-6.79687 0,-4.35547 2.5586,-7.01172 2.57812,-2.65625 6.44531,-2.65625 2.79297,0 5.09765,1.5039 2.32422,1.50391 3.51563,4.29688 1.21094,2.77344 1.21094,8.04687 0,5.48829 -1.19141,8.75 -1.19141,3.24219 -3.55469,4.94141 -2.34375,1.69922 -5.50781,1.69922 -3.35937,0 -5.48828,-1.85547 -2.12891,-1.875 -2.55859,-5.25391 z m 14.39453,-12.63671 q 0,-3.02735 -1.6211,-4.80469 -1.60156,-1.77735 -3.86718,-1.77735 -2.34375,0 -4.08204,1.91407 -1.73828,1.91406 -1.73828,4.96093 0,2.73438 1.64063,4.45313 1.66015,1.69922 4.08203,1.69922 2.44141,0 4.00391,-1.69922 1.58203,-1.71875 1.58203,-4.74609 z"/> </g> <g id="flowRoot6110" style="font-style:normal;font-weight:normal;font-size:40px;line-height:1.25;font-family:sans-serif;letter-spacing:0px;word-spacing:0px;display:inline;fill:#000000;fill-opacity:1;stroke:none" transform="matrix(9.513532,0,0,4.9398437,-1113.8822,-2221.4063)" aria-label="4"> <path id="path9930" style="font-style:normal;font-variant:normal;font-weight:normal;font-stretch:normal;font-family:Arial;-inkscape-font-specification:Arial;fill:#ffffff;fill-opacity:1" d="m 141.50195,424.72759 v -6.85547 h -12.42187 v -3.22266 l 13.0664,-18.55468 h 2.8711 v 18.55468 h 3.86719 v 3.22266 h -3.86719 v 6.85547 z m 0,-10.07813 v -12.91015 l -8.96484,12.91015 z"/> </g> <g id="flowRoot6126" style="font-style:normal;font-weight:normal;font-size:40px;line-height:1.25;font-family:sans-serif;letter-spacing:0px;word-spacing:0px;display:inline;fill:#000000;fill-opacity:1;stroke:none" transform="matrix(9.513532,0,0,4.9398437,-834.34841,-2223.5772)" aria-label="5"> <path id="path9927" style="font-style:normal;font-variant:normal;font-weight:normal;font-stretch:normal;font-family:Arial;-inkscape-font-specification:Arial;fill:#ffffff;fill-opacity:1" d="m 130.23242,417.22759 3.69141,-0.3125 q 0.41015,2.69531 1.89453,4.0625 1.50391,1.34765 3.61328,1.34765 2.53906,0 4.29688,-1.91406 1.75781,-1.91406 1.75781,-5.07812 0,-3.00782 -1.69922,-4.7461 -1.67969,-1.73828 -4.41406,-1.73828 -1.69922,0 -3.06641,0.78125 -1.36719,0.76172 -2.14844,1.99219 l -3.30078,-0.42969 2.77344,-14.70703 h 14.23828 v 3.35938 h -11.42578 l -1.54297,7.69531 q 2.57813,-1.79688 5.41016,-1.79688 3.75,0 6.32812,2.59766 2.57813,2.59766 2.57813,6.67969 0,3.88672 -2.26563,6.71875 -2.7539,3.47656 -7.51953,3.47656 -3.90625,0 -6.38672,-2.1875 -2.46094,-2.1875 -2.8125,-5.80078 z"/> </g> <g id="flowRoot6134" style="font-style:normal;font-weight:normal;font-size:40px;line-height:1.25;font-family:sans-serif;letter-spacing:0px;word-spacing:0px;display:inline;fill:#000000;fill-opacity:1;stroke:none" transform="matrix(9.513532,0,0,4.9398437,-1105.161,-1951.3333)" aria-label="1"> <path id="path9924" style="font-style:normal;font-variant:normal;font-weight:normal;font-stretch:normal;font-family:Arial;-inkscape-font-specification:Arial;fill:#ffffff;fill-opacity:1" d="m 143.47461,424.72759 h -3.51563 v -22.40235 q -1.26953,1.21094 -3.33984,2.42188 -2.05078,1.21094 -3.69141,1.81641 v -3.39844 q 2.94922,-1.38672 5.15625,-3.35938 2.20704,-1.97265 3.125,-3.82812 h 2.26563 z"/> </g> <g id="flowRoot6142" style="font-style:normal;font-weight:normal;font-size:40px;line-height:1.25;font-family:sans-serif;letter-spacing:0px;word-spacing:0px;display:inline;fill:#000000;fill-opacity:1;stroke:none" transform="matrix(9.513532,0,0,4.9398437,-829.78119,-1951.3333)" aria-label="2"> <path id="path9921" style="font-style:normal;font-variant:normal;font-weight:normal;font-stretch:normal;font-family:Arial;-inkscape-font-specification:Arial;fill:#ffffff;fill-opacity:1" d="m 148.70898,421.34868 v 3.37891 H 129.7832 q -0.0391,-1.26953 0.41016,-2.44141 0.72266,-1.93359 2.30469,-3.80859 1.60156,-1.875 4.60937,-4.33594 4.66797,-3.82812 6.3086,-6.05469 1.64062,-2.24609 1.64062,-4.23828 0,-2.08984 -1.50391,-3.51562 -1.48437,-1.44532 -3.88671,-1.44532 -2.53907,0 -4.0625,1.52344 -1.52344,1.52344 -1.54297,4.21875 l -3.61328,-0.37109 q 0.37109,-4.04297 2.79296,-6.15235 2.42188,-2.1289 6.50391,-2.1289 4.12109,0 6.52344,2.28515 2.40234,2.28516 2.40234,5.66407 0,1.71875 -0.70312,3.3789 -0.70313,1.66016 -2.34375,3.4961 -1.6211,1.83593 -5.41016,5.03906 -3.16406,2.65625 -4.0625,3.61328 -0.89844,0.9375 -1.48437,1.89453 z"/> </g> <g id="flowRoot6150" style="font-style:normal;font-weight:normal;font-size:40px;line-height:1.25;font-family:sans-serif;letter-spacing:0px;word-spacing:0px;display:inline;fill:#000000;fill-opacity:1;stroke:none" transform="matrix(9.513532,0,0,4.9398437,-553.45517,-1952.5875)" aria-label="3"> <path id="path9918" style="font-style:normal;font-variant:normal;font-weight:normal;font-stretch:normal;font-family:Arial;-inkscape-font-specification:Arial;fill:#ffffff;fill-opacity:1" d="m 130.25195,417.16899 3.51563,-0.46875 q 0.60547,2.98829 2.05078,4.31641 1.46484,1.30859 3.55469,1.30859 2.48047,0 4.17968,-1.71875 1.71875,-1.71875 1.71875,-4.25781 0,-2.42187 -1.58203,-3.98437 -1.58203,-1.58203 -4.02343,-1.58203 -0.9961,0 -2.48047,0.39062 l 0.39062,-3.08594 q 0.35156,0.0391 0.56641,0.0391 2.24609,0 4.04297,-1.17188 1.79687,-1.17187 1.79687,-3.61328 0,-1.93359 -1.30859,-3.20313 -1.3086,-1.26953 -3.37891,-1.26953 -2.05078,0 -3.41797,1.28907 -1.36718,1.28906 -1.75781,3.86718 l -3.51562,-0.625 q 0.64453,-3.53515 2.92968,-5.46875 2.28516,-1.95312 5.6836,-1.95312 2.34375,0 4.3164,1.01562 1.97266,0.9961 3.00782,2.73438 1.05468,1.73828 1.05468,3.6914 0,1.85547 -0.99609,3.37891 -0.99609,1.52344 -2.94922,2.42188 2.53906,0.58593 3.94531,2.4414 1.40625,1.83594 1.40625,4.60938 0,3.75 -2.73437,6.36718 -2.73438,2.59766 -6.91406,2.59766 -3.76954,0 -6.26954,-2.24609 -2.48046,-2.2461 -2.83203,-5.82032 z"/> </g> </g> </svg>