<?xml version="1.0" encoding="UTF-8"?>
<!DOCTYPE svg  PUBLIC '-//W3C//DTD SVG 1.1//EN'  'http://www.w3.org/Graphics/SVG/1.1/DTD/svg11.dtd'>
<svg enable-background="new 0 0 142 142" version="1.1" viewBox="0 0 142 142" xml:space="preserve" xmlns="http://www.w3.org/2000/svg">
<path d="m87.331 67.5h-78.662c-4.504 0-8.169-3.665-8.169-8.169v-51.162c0-4.504 3.665-8.169 8.169-8.169h78.661c4.504 0 8.17 3.665 8.17 8.169v51.161c0 4.505-3.666 8.17-8.169 8.17zm-78.662-62.5c-1.747 0-3.169 1.422-3.169 3.169v51.161c0 1.748 1.422 3.169 3.169 3.169h78.661c1.748 0 3.17-1.422 3.17-3.169v-51.161c0-1.747-1.421-3.169-3.169-3.169h-78.662z" fill="#EF4136"/>
<path d="m45.745 45.232c-2.207 0-4.412-0.807-6.047-2.404l-38.445-37.539 3.493-3.577 38.444 37.538c1.303 1.271 3.563 1.335 4.935 0.137l43.23-37.77 3.289 3.766-43.229 37.77c-1.592 1.39-3.632 2.079-5.67 2.079z" fill="#EF4136"/>
<rect transform="matrix(-.7709 -.6369 .6369 -.7709 .7756 93.775)" x="14.752" y="24.374" width="5" height="44.748" fill="#EF4136"/>
<rect transform="matrix(-.6369 -.771 .771 -.6369 90.403 136.09)" x="54.874" y="44.253" width="44.751" height="5" fill="#EF4136"/>
<linearGradient id="a" x1="203.27" x2="203.27" y1="-274.29" y2="-206.79" gradientTransform="matrix(1 0 0 -1 -155.77 -137.73)" gradientUnits="userSpaceOnUse">
	<stop stop-color="#EF4136" stop-opacity="0" offset=".5706"/>
	<stop stop-color="#EF4136" offset="1"/>
</linearGradient>
<path d="m95 128.4v-51.16c0-4.506-3.666-8.17-8.17-8.17h-78.661c-1.347 0-2.616 0.334-3.738 0.914l-4e-3 -6e-3 -0.022 0.019c-1.021 0.533-1.915 1.274-2.627 2.17l-1.205 0.995 0.319 0.386c-0.566 1.104-0.892 2.356-0.892 3.686v51.16c0 1.344 0.332 2.608 0.909 3.729l-0.156 0.152 0.605 0.619c0.569 0.859 1.298 1.604 2.142 2.193l0.746 0.766 0.2-0.195c1.118 0.574 2.382 0.906 3.723 0.906h78.661c1.334 0 2.59-0.328 3.703-0.897l0.32 0.28 0.949-1.086c0.854-0.658 1.573-1.479 2.112-2.42l0.229-0.26-0.06-0.052c0.584-1.12 0.917-2.39 0.917-3.73zm-5.016 0.15l-24.866-21.73 24.834-30.062c0.023 0.157 0.048 0.312 0.048 0.476v51.16c0 0.05-0.014 0.11-0.016 0.16zm-81.345 3.01l34.052-33.25c1.303-1.273 3.563-1.336 4.934-0.137l38.214 33.387h-77.2zm-3.639-53.044l22.686 27.461-22.686 22.15v-49.614zm3.169-4.452h77.522l-24.34 29.465-10.437-9.117c-1.591-1.391-3.631-2.079-5.67-2.079-2.206 0-4.411 0.808-6.047 2.403l-7.922 7.736-23.44-28.372c0.112-0.013 0.22-0.034 0.334-0.034z" enable-background="new    " fill="url(#a)" opacity=".4"/>
</svg>
