<?xml version="1.0" encoding="UTF-8"?>
<svg viewBox="0 0 58.282 58.282" xmlns="http://www.w3.org/2000/svg">
 <g fill="#cf3423">
  <path class="fil0" d="m24.941 23.341c-5.1662 2.9826 2.7163 17.76 8.3695 14.496 1.0039 1.7388 4.2375 7.3398 5.2415 9.0785-2.3852 1.3772-4.4041 2.2454-7.1694 0.66454-7.6779-4.3891-16.129-19.022-15.889-27.75 0.08347-3.0315 1.8695-4.2193 4.2058-5.5681 1.0039 1.7388 4.2376 7.3398 5.2415 9.0786h9e-5z"/>
  <path class="fil0" d="m27.108 23.095c-0.5582 0.32229-1.2765 0.12992-1.5989-0.42833l-4.9413-8.5587c-0.32234-0.55832-0.12997-1.2766 0.42828-1.5989l2.597-1.4994c0.55826-0.32235 1.2767-0.12981 1.599 0.42845l4.9413 8.5586c0.32229 0.5582 0.12987 1.2765-0.42833 1.5988l-2.5971 1.4994z"/>
  <path class="fil0" d="m40.607 46.477c-0.5582 0.32229-1.2765 0.12992-1.5989-0.4284l-4.9413-8.5587c-0.32234-0.55826-0.12997-1.2766 0.42828-1.5989l2.5971-1.4994c0.55826-0.32229 1.2767-0.12975 1.599 0.42845l4.9414 8.5586c0.32228 0.55826 0.12986 1.2766-0.42834 1.5989l-2.5971 1.4994z"/>
  <path class="fil1" d="m29.641 2h4.1e-4v0.00644c7.6356 1.1e-4 14.546 3.0922 19.544 8.0906 4.998 4.9981 8.09 11.908 8.0903 19.543h0.006439v0.00128h-0.006439c-1.11e-4 7.6357-3.0922 14.546-8.0906 19.544-4.9982 4.998-11.908 8.09-19.543 8.0903v0.006443h-0.001289v-0.006443c-7.6356-1.07e-4 -14.546-3.0922-19.544-8.0906-4.998-4.9982-8.09-11.908-8.0903-19.543h-0.00643v-0.001291h0.00643c1.2e-4 -7.6356 3.0922-14.546 8.0906-19.544 4.9981-4.998 11.908-8.09 19.543-8.0903v-0.00644h8.81e-4zm4e-4 3.2969v0.00645h-0.001291v-0.00645c-6.7148 1.8e-4 -12.799 2.7273-17.208 7.1354-4.4084 4.4084-7.1356 10.493-7.1357 17.208h0.00644v0.00128h-0.00644c1.8e-4 6.7148 2.7273 12.799 7.1354 17.208 4.4084 4.4084 10.493 7.1356 17.208 7.1357v-0.006428h0.001289v0.006428c6.7148-1.68e-4 12.799-2.7273 17.208-7.1354 4.4084-4.4084 7.1356-10.493 7.1357-17.208h-0.006443v-0.00128h0.006443c-1.79e-4 -6.7148-2.7273-12.799-7.1354-17.208-4.4084-4.4084-10.493-7.1356-17.208-7.1357z"/>
 </g>
</svg>
